<?xml version="1.0" encoding="UTF-8"?>
<svg id="Layer_1" xmlns="http://www.w3.org/2000/svg" version="1.1" viewBox="0 0 384 384">
  <!-- Generator: Adobe Illustrator 29.4.0, SVG Export Plug-In . SVG Version: 2.1.0 Build 152)  -->
  <path d="M272.56,183.38h-10.88c-6.15,0-15.77,7.24-19.43,12.07-1.77,2.32-2.77,5.53-4.53,7.47-3.63,4.01-10.24,5.65-14.66,11.59-6.47,8.72-3.72,14.15-5.58,22.92-1.33,6.25-7.07,10.96-7.19,19.87-.14,10.38,5.65,13.86,7.2,20.53,1.19,5.12-.85,10.9,1.82,15.8H19.81c2.09-27.99-4.93-62.13,5.64-88.49,13.4-33.42,51.42-51.54,84.71-58.5,23.43,15.16,52.05,18.53,77.92,7.38,3.79-1.63,9.56-5.84,12.71-6.84,3.89-1.24,20.71,4.62,25.46,6.39,17.24,6.42,34.13,15.9,46.31,29.81Z"/>
  <circle cx="156.08" cy="79.75" r="71.88"/>
  <path d="M243.79,305.9c-5.05-5.06-11.12-4.59-15.13-12.99-2.72-5.69-1.3-8.3-1.86-13.89-1.09-10.86-10.64-13.86-6.03-27.8,1.48-4.48,5.12-8.09,5.86-12.89.91-5.9-.83-9.81,2.13-15.87,3.93-8.05,11.91-8.49,16.67-14.83,3.68-4.9,4.02-8.89,10.11-12.39,7.39-4.24,11.53-1.73,18.56-3.19,4.63-.96,8.65-5.46,13.26-6.24,12.9-2.17,13.78,4.4,22.65,6.24,7.48,1.55,12.56-1.35,19.92,4.08,4.73,3.49,5.77,7.98,8.98,12.02,4.07,5.1,11.09,6.22,15.27,12.48,4.19,6.29,2.48,9.78,3.13,16.37,1.01,10.08,10.02,13.94,6.4,26.67-1.29,4.53-5.16,7.94-6.06,12.68-1.54,8.1,1.35,13.07-4.86,20.64-3.77,4.6-8.84,5.28-12.35,8.65-2.85,2.74-4.52,7.81-7.15,10.85-7.85,9.1-14.97,4.64-24.15,7.35-3.27.97-5.78,3.41-8.84,4.66-14.67,5.95-18.27-4.36-30.38-5.61-5.03-.52-7.46.72-12.64-1.61-8.69-3.9-8.23-10.12-13.49-15.39ZM337.11,257.8c0-24.9-20.19-45.09-45.09-45.09s-45.09,20.19-45.09,45.09,20.19,45.09,45.09,45.09,45.09-20.19,45.09-45.09Z"/>
  <path d="M281.57,337.15l-10.51,38.98c-3.88-2.44-14.56-24.04-17.01-24.66-2.34-.59-22.94,12.6-27.23,13.4l12.76-47.99c4.83,6.77,11.98,13.81,20.68,14.94,3.56.46,7.18-.36,10.85.4,3.87.8,6.59,4.16,10.46,4.94Z"/>
  <path d="M357.31,364.87l-27.73-14.24-16.51,25.5-10.52-38.98c3.88-.77,6.59-4.14,10.46-4.94,3.42-.71,6.72-.02,10.09-.41,9.32-1.1,16.13-7.82,21.45-14.92l12.76,47.99Z"/>
  <circle cx="292.02" cy="257.81" r="36.08"/>
</svg>