<?xml version="1.0" encoding="UTF-8"?>
<svg id="Layer_1" xmlns="http://www.w3.org/2000/svg" xmlns:xlink="http://www.w3.org/1999/xlink" version="1.1" viewBox="0 0 121.23 121.23">
  <!-- Generator: Adobe Illustrator 29.5.1, SVG Export Plug-In . SVG Version: 2.1.0 Build 141)  -->
  <defs>
    <style>
      .st0 {
        fill: none;
      }

      .st1 {
        fill: #314f60;
      }

      .st2 {
        fill: #e2e2e2;
      }

      .st3 {
        fill: #f2b92e;
      }

      .st4 {
        fill: #53bdc3;
      }

      .st5 {
        clip-path: url(#clippath);
      }

      .st6 {
        fill: #c4c3c3;
      }
    </style>
    <clipPath id="clippath">
      <circle class="st0" cx="60.62" cy="60.62" r="60.62" transform="translate(-12.31 105.69) rotate(-76.72)"/>
    </clipPath>
  </defs>
  <circle class="st2" cx="60.62" cy="60.62" r="60.62" transform="translate(-12.31 105.69) rotate(-76.72)"/>
  <g class="st5">
    <g>
      <path class="st6" d="M68.13,24.64l21.93,14.45h14.07l22.02,15.71v66.54h-49.66l-41.65-27.06S29.75,24.26,68.13,24.64Z"/>
      <g>
        <polygon class="st4" points="28.91 29.95 31.05 26.19 34.44 25.07 62.21 25.07 64.85 27.51 65.98 30.57 65.98 61.12 62.96 63.86 30.67 63.86 29.79 59.37 28.91 29.95"/>
        <rect class="st3" x="67.49" y="46.09" width="32.32" height="26.03"/>
        <path class="st1" d="M99.81,47.35v-7.21c0-.87-.71-1.57-1.58-1.57h-30.31v-7.96c0-3.97-3.23-7.19-7.22-7.19h-25.67c-.83,0-1.63.15-2.37.41-2.82.98-4.85,3.64-4.85,6.79v57.53c0,3.97,3.23,7.19,7.22,7.19h25.67c.4,0,.79-.04,1.17-.1,3.43-.56,6.05-3.52,6.05-7.09v-7.96h30.31c.87,0,1.58-.7,1.58-1.57v-25.61h-31.89v-5.65h31.89ZM74.45,66.48h18.89v5.02h-18.89v-5.02ZM31.82,66.56h6.42c.7,0,1.32.3,1.76.78.4.43.65.99.65,1.62s-.25,1.2-.65,1.62c-.44.47-1.06.78-1.76.78h-6.42c-1.33,0-2.41-1.08-2.41-2.4s1.08-2.4,2.41-2.4ZM31.82,72.95h6.42c.7,0,1.32.3,1.76.77.4.43.65,1,.65,1.62s-.25,1.19-.65,1.62c-.44.47-1.06.77-1.76.77h-6.42c-1.33,0-2.41-1.07-2.41-2.4s1.08-2.4,2.41-2.4ZM38.24,90.53h-6.42c-1.33,0-2.41-1.07-2.41-2.4s1.08-2.4,2.41-2.4h6.42c1.33,0,2.41,1.07,2.41,2.4s-1.08,2.4-2.41,2.4ZM38.24,84.14h-6.42c-1.33,0-2.41-1.07-2.41-2.4s1.08-2.4,2.41-2.4h6.42c1.33,0,2.41,1.07,2.41,2.4s-1.08,2.4-2.41,2.4ZM53.48,68.96c0,1.32-1.08,2.4-2.41,2.4h-6.42c-1.33,0-2.4-1.08-2.4-2.4s1.08-2.4,2.4-2.4h6.42c.36,0,.69.08.99.22,0,0,0,0,0,0,.76.35,1.3,1.07,1.38,1.94h0c0,.08.02.16.02.24ZM55.79,73.65s0,0,0,0c.43-.43,1.04-.7,1.7-.7h6.42c1.33,0,2.41,1.07,2.41,2.4s-1.08,2.4-2.41,2.4h-6.42c-.48,0-.92-.14-1.3-.39h0c-.66-.43-1.11-1.17-1.11-2.01,0-.66.27-1.26.71-1.7ZM55.08,68.96c0-1.32,1.08-2.4,2.41-2.4h6.42c1.33,0,2.41,1.08,2.41,2.4s-1.08,2.4-2.41,2.4h-6.42c-1.33,0-2.41-1.08-2.41-2.4ZM44.65,72.95h6.42c1.33,0,2.41,1.07,2.41,2.4s-1.08,2.4-2.41,2.4h-6.42c-1.33,0-2.4-1.07-2.4-2.4s1.08-2.4,2.4-2.4ZM51.07,90.53h-6.42c-1.33,0-2.4-1.07-2.4-2.4s1.08-2.4,2.4-2.4h6.42c1.33,0,2.41,1.07,2.41,2.4s-1.08,2.4-2.41,2.4ZM51.07,84.14h-6.42c-1.33,0-2.4-1.07-2.4-2.4,0-.6.23-1.15.6-1.57.44-.5,1.08-.83,1.8-.83h6.42c.72,0,1.36.32,1.81.83.37.42.6.97.6,1.57,0,1.32-1.08,2.4-2.41,2.4ZM63.91,90.53h-6.42c-1.33,0-2.41-1.07-2.41-2.4s1.08-2.4,2.41-2.4h6.42c1.33,0,2.41,1.07,2.41,2.4s-1.08,2.4-2.41,2.4ZM66.32,81.74c0,1.32-1.08,2.4-2.41,2.4h-6.42c-.1,0-.2-.02-.3-.03,0,0,0,0,0,0-1.18-.15-2.1-1.15-2.1-2.37,0-.6.23-1.15.6-1.57.2-.22.44-.41.71-.55h0c.33-.17.7-.28,1.1-.28h6.42c.72,0,1.36.32,1.81.83.37.42.6.97.6,1.57ZM64.71,52.99v4.38c0,2.43-1.8,4.4-4.01,4.4h-25.67c-2.22,0-4.01-1.97-4.01-4.4v-26.37c0-2.43,1.8-4.39,4.01-4.39h25.67c2.21,0,4.01,1.97,4.01,4.39v21.99Z"/>
      </g>
    </g>
  </g>
</svg>